<?xml version="1.0" encoding="utf-8"?>
<!-- Generator: Adobe Illustrator 22.0.1, SVG Export Plug-In . SVG Version: 6.00 Build 0)  -->
<svg version="1.0" xmlns="http://www.w3.org/2000/svg" xmlns:xlink="http://www.w3.org/1999/xlink" x="0px" y="0px"
	 viewBox="0 0 1417.4 784.4" style="enable-background:new 0 0 1417.4 784.4;" xml:space="preserve">
<style type="text/css">
	.st0{fill:#3A3A3C;}
	.st1{fill:#242A96;}
	.st2{fill:#3198A7;}
	.st3{fill:#939598;}
	.st4{fill:#F7F7F7;}
	.st5{fill:#09B9E0;}
	.st6{fill:#007E44;}
	.st7{fill:#006B66;}
	.st8{fill:#154FFF;}
	.st9{fill:#FFFFFF;}
</style>
<g id="Layer_2">
</g>
<g id="Layer_1">
	<g id="LINE_9_">
		<path class="st0" d="M377.3,83.5v63.6c0,3.4-2.8,6.2-6.2,6.2l-54.9-54.9v54.9h-8.7V89.7c0-3.4,2.8-6.2,6.2-6.2l54.9,54.9V83.5
			H377.3z"/>
	</g>
	<g id="LINE_8_">
		<path class="st0" d="M572.7,83.5v8.7h17.5c2.4,0,4.4,2,4.4,4.4v43.6c0,2.4-2,4.4-4.4,4.4h-48v-48c0-2.4,2-4.4,4.4-4.4H564v-8.7
			h-21.8c-4.8,0-8.7,3.9-8.7,8.7v61h61c4.8,0,8.7-3.9,8.7-8.7V92.2c0-4.8-3.9-8.7-8.7-8.7H572.7z"/>
	</g>
	<g id="LINE_7_">
		<path class="st0" d="M220.3,83.5c-4.8,0-8.7,3.9-8.7,8.7v52.3c0,4.8,3.9,8.7,8.7,8.7h8.7v-8.7h-4.4c-2.4,0-4.4-2-4.4-4.4V96.6
			c0-2.4,2-4.4,4.4-4.4h39.2c4.8,0,8.7,3.9,8.7,8.7v34.9c0,4.8-3.9,8.7-8.7,8.7h-26.2v8.7h26.2c9.6,0,17.4-7.8,17.4-17.4V101
			c0-9.6-7.8-17.4-17.4-17.4H220.3"/>
	</g>
	<g id="LINE_6_">
		<rect x="290.1" y="101.5" class="st0" width="8.7" height="51.8"/>
	</g>
	<g id="LINE_5_">
		<path class="st0" d="M394.7,83.5c-4.8,0-8.7,3.9-8.7,8.7v52.3c0,4.8,3.9,8.7,8.7,8.7h48c2.4,0,4.4-2,4.4-4.4v-4.4h-48
			c-2.4,0-4.4-2-4.4-4.4v-17.4h43.6c-1.6-2.7-1.6-6,0-8.7h-43.6V96.6c0-2.4,2-4.4,4.4-4.4h48v-4.4c0-2.4-2-4.4-4.4-4.4H394.7"/>
	</g>
	<path class="st0" d="M525.5,114V101c0-9.6-7.8-17.4-17.4-17.4h-43.6c-4.8,0-8.7,3.9-8.7,8.7v52.3c0,4.8,3.9,8.7,8.7,8.7v-30.5h28.7
		c1.2,0,2.3,0.5,3.1,1.3l29.2,29.2v-12.3l-18.2-18.2h9.5C521.6,122.8,525.5,118.9,525.5,114z M512.4,114h-48V96.6
		c0-2.4,2-4.4,4.4-4.4h39.2c4.8,0,8.7,3.9,8.7,8.7v8.7C516.8,112.1,514.8,114,512.4,114z"/>
	<g id="LINE_4_">
		<polyline class="st0" points="168,118.4 202.9,118.4 168,83.5 168,118.4 		"/>
	</g>
	<g id="LINE_3_">
		<polyline class="st0" points="168,118.4 133.1,118.4 168,153.3 		"/>
	</g>
	<g id="LINE_2_">
		<polygon class="st0" points="202.9,120.1 169.7,120.1 202.9,153.3 		"/>
	</g>
	<g id="LINE_1_">
		<polygon class="st0" points="166.2,83.5 166.2,116.7 133.1,83.5 		"/>
	</g>
	<polygon class="st0" points="290.1,74.5 298.8,74.5 298.8,92.5 290.1,83.2 	"/>
	<g id="LINE_18_">
		<path class="st1" d="M377.3,163.5v63.6c0,3.4-2.8,6.2-6.2,6.2l-54.9-54.9v54.9h-8.7v-63.6c0-3.4,2.8-6.2,6.2-6.2l54.9,54.9v-54.9
			H377.3z"/>
	</g>
	<g id="LINE_17_">
		<path class="st1" d="M572.7,163.5v8.7h17.5c2.4,0,4.4,2,4.4,4.4v43.6c0,2.4-2,4.4-4.4,4.4h-48v-48c0-2.4,2-4.4,4.4-4.4H564v-8.7
			h-21.8c-4.8,0-8.7,3.9-8.7,8.7v61h61c4.8,0,8.7-3.9,8.7-8.7v-52.3c0-4.8-3.9-8.7-8.7-8.7H572.7z"/>
	</g>
	<g id="LINE_16_">
		<path class="st1" d="M220.3,163.5c-4.8,0-8.7,3.9-8.7,8.7v52.3c0,4.8,3.9,8.7,8.7,8.7h8.7v-8.7h-4.4c-2.4,0-4.4-2-4.4-4.4v-43.6
			c0-2.4,2-4.4,4.4-4.4h39.2c4.8,0,8.7,3.9,8.7,8.7v34.9c0,4.8-3.9,8.7-8.7,8.7h-26.2v8.7h26.2c9.6,0,17.4-7.8,17.4-17.4v-34.9
			c0-9.6-7.8-17.4-17.4-17.4H220.3"/>
	</g>
	<g id="LINE_15_">
		<rect x="290.1" y="181.5" class="st1" width="8.7" height="51.8"/>
	</g>
	<g id="LINE_14_">
		<path class="st1" d="M394.7,163.5c-4.8,0-8.7,3.9-8.7,8.7v52.3c0,4.8,3.9,8.7,8.7,8.7h48c2.4,0,4.4-2,4.4-4.4v-4.4h-48
			c-2.4,0-4.4-2-4.4-4.4v-17.4h43.6c-1.6-2.7-1.6-6,0-8.7h-43.6v-17.4c0-2.4,2-4.4,4.4-4.4h48v-4.4c0-2.4-2-4.4-4.4-4.4H394.7"/>
	</g>
	<path class="st1" d="M525.5,194v-13.1c0-9.6-7.8-17.4-17.4-17.4h-43.6c-4.8,0-8.7,3.9-8.7,8.7v52.3c0,4.8,3.9,8.7,8.7,8.7v-30.5
		h28.7c1.2,0,2.3,0.5,3.1,1.3l29.2,29.2v-12.3l-18.2-18.2h9.5C521.6,202.7,525.5,198.8,525.5,194z M512.4,194h-48v-17.4
		c0-2.4,2-4.4,4.4-4.4h39.2c4.8,0,8.7,3.9,8.7,8.7v8.7C516.8,192.1,514.8,194,512.4,194z"/>
	<g id="LINE_13_">
		<polyline class="st1" points="168,198.4 202.9,198.4 168,163.5 168,198.4 		"/>
	</g>
	<g id="LINE_12_">
		<polyline class="st1" points="168,198.4 133.1,198.4 168,233.3 		"/>
	</g>
	<g id="LINE_11_">
		<polygon class="st1" points="202.9,200.1 169.7,200.1 202.9,233.3 		"/>
	</g>
	<g id="LINE_10_">
		<polygon class="st1" points="166.2,163.5 166.2,196.6 133.1,163.5 		"/>
	</g>
	<g>
		<g id="LINE_40_">
			<polyline class="st1" points="176.2,672.9 219.3,672.9 176.2,629.7 176.2,672.9 			"/>
		</g>
		<g id="LINE_39_">
			<polyline class="st1" points="176.2,672.9 133.1,672.9 176.2,716 			"/>
		</g>
		<g id="LINE_38_">
			<polygon class="st1" points="219.3,675 178.4,675 219.3,716 			"/>
		</g>
		<g id="LINE_37_">
			<polygon class="st1" points="174,629.7 174,670.7 133.1,629.7 			"/>
		</g>
	</g>
	<g>
		<g id="LINE_44_">
			<polyline class="st2" points="364.4,672.9 407.5,672.9 364.4,629.7 364.4,672.9 			"/>
		</g>
		<g id="LINE_43_">
			<polyline class="st2" points="364.4,672.9 321.3,672.9 364.4,716 			"/>
		</g>
		<g id="LINE_42_">
			<polygon class="st2" points="407.5,675 366.5,675 407.5,716 			"/>
		</g>
		<g id="LINE_41_">
			<polygon class="st2" points="362.2,629.7 362.2,670.7 321.3,629.7 			"/>
		</g>
	</g>
	<g>
		<g id="LINE_57_">
			<polyline class="st0" points="552.6,672.9 595.7,672.9 552.6,629.7 552.6,672.9 			"/>
		</g>
		<g id="LINE_56_">
			<polyline class="st0" points="552.6,672.9 509.5,672.9 552.6,716 			"/>
		</g>
		<g id="LINE_55_">
			<polygon class="st0" points="595.7,675 554.7,675 595.7,716 			"/>
		</g>
		<g id="LINE_45_">
			<polygon class="st0" points="550.4,629.7 550.4,670.7 509.5,629.7 			"/>
		</g>
	</g>
	<polygon class="st1" points="290.1,163.5 298.8,163.5 298.8,181.5 290.1,172.2 	"/>
	<g id="LINE_27_">
		<path class="st0" d="M377.3,243.5v63.6c0,3.4-2.8,6.2-6.2,6.2l-54.9-54.9v54.9h-8.7v-63.6c0-3.4,2.8-6.2,6.2-6.2l54.9,54.9v-54.9
			H377.3z"/>
	</g>
	<g id="LINE_26_">
		<path class="st0" d="M572.7,243.5v8.7h17.5c2.4,0,4.4,2,4.4,4.4v43.6c0,2.4-2,4.4-4.4,4.4h-48v-48c0-2.4,2-4.4,4.4-4.4H564v-8.7
			h-21.8c-4.8,0-8.7,3.9-8.7,8.7v61h61c4.8,0,8.7-3.9,8.7-8.7v-52.3c0-4.8-3.9-8.7-8.7-8.7H572.7z"/>
	</g>
	<g id="LINE_25_">
		<path class="st0" d="M220.3,243.5c-4.8,0-8.7,3.9-8.7,8.7v52.3c0,4.8,3.9,8.7,8.7,8.7h8.7v-8.7h-4.4c-2.4,0-4.4-2-4.4-4.4v-43.6
			c0-2.4,2-4.4,4.4-4.4h39.2c4.8,0,8.7,3.9,8.7,8.7v34.9c0,4.8-3.9,8.7-8.7,8.7h-26.2v8.7h26.2c9.6,0,17.4-7.8,17.4-17.4v-34.9
			c0-9.6-7.8-17.4-17.4-17.4H220.3"/>
	</g>
	<g id="LINE_24_">
		<rect x="290.1" y="261.5" class="st0" width="8.7" height="51.8"/>
	</g>
	<g id="LINE_23_">
		<path class="st0" d="M394.7,243.5c-4.8,0-8.7,3.9-8.7,8.7v52.3c0,4.8,3.9,8.7,8.7,8.7h48c2.4,0,4.4-2,4.4-4.4v-4.4h-48
			c-2.4,0-4.4-2-4.4-4.4v-17.4h43.6c-1.6-2.7-1.6-6,0-8.7h-43.6v-17.4c0-2.4,2-4.4,4.4-4.4h48v-4.4c0-2.4-2-4.4-4.4-4.4H394.7"/>
	</g>
	<path class="st0" d="M525.5,274v-13.1c0-9.6-7.8-17.4-17.4-17.4h-43.6c-4.8,0-8.7,3.9-8.7,8.7v52.3c0,4.8,3.9,8.7,8.7,8.7v-30.5
		h28.7c1.2,0,2.3,0.5,3.1,1.3l29.2,29.2v-12.3l-18.2-18.2h9.5C521.6,282.7,525.5,278.8,525.5,274z M512.4,274h-48v-17.4
		c0-2.4,2-4.4,4.4-4.4h39.2c4.8,0,8.7,3.9,8.7,8.7v8.7C516.8,272.1,514.8,274,512.4,274z"/>
	<g id="LINE_22_">
		<polyline class="st2" points="168,278.4 202.9,278.4 168,243.5 168,278.4 		"/>
	</g>
	<g id="LINE_21_">
		<polyline class="st2" points="168,278.4 133.1,278.4 168,313.3 		"/>
	</g>
	<g id="LINE_20_">
		<polygon class="st2" points="202.9,280.1 169.7,280.1 202.9,313.3 		"/>
	</g>
	<g id="LINE_19_">
		<polygon class="st2" points="166.2,243.5 166.2,276.6 133.1,243.5 		"/>
	</g>
	<polygon class="st0" points="290.1,243.5 298.8,243.5 298.8,261.5 290.1,252.2 	"/>
	<g>
		<g id="LINE_36_">
			<path class="st3" d="M377.3,323.5v63.6c0,3.4-2.8,6.2-6.2,6.2l-54.9-54.9v54.9h-8.7v-63.6c0-3.4,2.8-6.2,6.2-6.2l54.9,54.9v-54.9
				H377.3z"/>
		</g>
		<g id="LINE_35_">
			<path class="st3" d="M572.7,323.5v8.7h17.5c2.4,0,4.4,2,4.4,4.4v43.6c0,2.4-2,4.4-4.4,4.4h-48v-48c0-2.4,2-4.4,4.4-4.4H564v-8.7
				h-21.8c-4.8,0-8.7,3.9-8.7,8.7v61h61c4.8,0,8.7-3.9,8.7-8.7v-52.3c0-4.8-3.9-8.7-8.7-8.7H572.7z"/>
		</g>
		<g id="LINE_34_">
			<path class="st3" d="M220.3,323.5c-4.8,0-8.7,3.9-8.7,8.7v52.3c0,4.8,3.9,8.7,8.7,8.7h8.7v-8.7h-4.4c-2.4,0-4.4-2-4.4-4.4v-43.6
				c0-2.4,2-4.4,4.4-4.4h39.2c4.8,0,8.7,3.9,8.7,8.7v34.9c0,4.8-3.9,8.7-8.7,8.7h-26.2v8.7h26.2c9.6,0,17.4-7.8,17.4-17.4v-34.9
				c0-9.6-7.8-17.4-17.4-17.4H220.3"/>
		</g>
		<g id="LINE_33_">
			<rect x="290.1" y="341.4" class="st3" width="8.7" height="51.8"/>
		</g>
		<g id="LINE_32_">
			<path class="st3" d="M394.7,323.5c-4.8,0-8.7,3.9-8.7,8.7v52.3c0,4.8,3.9,8.7,8.7,8.7h48c2.4,0,4.4-2,4.4-4.4v-4.4h-48
				c-2.4,0-4.4-2-4.4-4.4v-17.4h43.6c-1.6-2.7-1.6-6,0-8.7h-43.6v-17.4c0-2.4,2-4.4,4.4-4.4h48v-4.4c0-2.4-2-4.4-4.4-4.4H394.7"/>
		</g>
		<path class="st3" d="M525.5,354v-13.1c0-9.6-7.8-17.4-17.4-17.4h-43.6c-4.8,0-8.7,3.9-8.7,8.7v52.3c0,4.8,3.9,8.7,8.7,8.7v-30.5
			h28.7c1.2,0,2.3,0.5,3.1,1.3l29.2,29.2v-12.3l-18.2-18.2h9.5C521.6,362.7,525.5,358.8,525.5,354z M512.4,354h-48v-17.4
			c0-2.4,2-4.4,4.4-4.4h39.2c4.8,0,8.7,3.9,8.7,8.7v8.7C516.8,352,514.8,354,512.4,354z"/>
		<g id="LINE_31_">
			<polyline class="st3" points="168,358.4 202.9,358.4 168,323.5 168,358.4 			"/>
		</g>
		<g id="LINE_30_">
			<polyline class="st3" points="168,358.4 133.1,358.4 168,393.2 			"/>
		</g>
		<g id="LINE_29_">
			<polygon class="st3" points="202.9,360.1 169.7,360.1 202.9,393.2 			"/>
		</g>
		<g id="LINE_28_">
			<polygon class="st3" points="166.2,323.5 166.2,356.6 133.1,323.5 			"/>
		</g>
		<polygon class="st3" points="290.1,323.5 298.8,323.5 298.8,341.4 290.1,332.2 		"/>
	</g>
	<rect x="1283.7" class="st3" width="52.1" height="83.5"/>
	<rect x="1231.5" class="st4" width="52.1" height="83.5"/>
	<rect x="1179.4" class="st5" width="52.1" height="83.5"/>
	<rect x="1127.3" class="st6" width="52.1" height="83.5"/>
	<rect x="1075.2" class="st7" width="52.1" height="83.5"/>
	<rect x="1023.1" class="st8" width="52.1" height="83.5"/>
	<rect x="928.3" class="st0" width="52.1" height="83.5"/>
	<rect x="876.2" class="st2" width="52.1" height="83.5"/>
	<rect x="824.1" class="st1" width="52.1" height="83.5"/>
	<rect x="133.1" y="432.2" class="st1" width="470.1" height="161.8"/>
	<g>
		<g id="LINE_54_">
			<path class="st9" d="M375.3,486.1v49.2c0,2.6-2.1,4.8-4.8,4.8L328,497.6v42.5h-6.7v-49.2c0-2.6,2.1-4.8,4.8-4.8l42.5,42.5v-42.5
				H375.3z"/>
		</g>
		<g id="LINE_53_">
			<path class="st9" d="M526.5,486.1v6.7H540c1.9,0,3.4,1.5,3.4,3.4V530c0,1.9-1.5,3.4-3.4,3.4h-37.1v-37.1c0-1.9,1.5-3.4,3.4-3.4
				h13.5v-6.7h-16.9c-3.7,0-6.7,3-6.7,6.7v47.2h47.2c3.7,0,6.7-3,6.7-6.7v-40.5c0-3.7-3-6.7-6.7-6.7H526.5z"/>
		</g>
		<g id="LINE_52_">
			<path class="st9" d="M253.8,486.1c-3.7,0-6.7,3-6.7,6.7v40.5c0,3.7,3,6.7,6.7,6.7h6.7v-6.7h-3.4c-1.9,0-3.4-1.5-3.4-3.4v-33.7
				c0-1.9,1.5-3.4,3.4-3.4h30.4c3.7,0,6.7,3,6.7,6.7v27c0,3.7-3,6.7-6.7,6.7h-20.2v6.7h20.2c7.5,0,13.5-6,13.5-13.5v-27
				c0-7.5-6-13.5-13.5-13.5H253.8"/>
		</g>
		<g id="LINE_51_">
			<rect x="307.8" y="500" class="st9" width="6.7" height="40.1"/>
		</g>
		<g id="LINE_50_">
			<path class="st9" d="M388.8,486.1c-3.7,0-6.7,3-6.7,6.7v40.5c0,3.7,3,6.7,6.7,6.7h37.1c1.9,0,3.4-1.5,3.4-3.4v-3.4h-37.1
				c-1.9,0-3.4-1.5-3.4-3.4v-13.5h33.7c-1.2-2.1-1.2-4.7,0-6.7h-33.7v-13.5c0-1.9,1.5-3.4,3.4-3.4h37.1v-3.4c0-1.9-1.5-3.4-3.4-3.4
				H388.8"/>
		</g>
		<path class="st9" d="M490,509.7v-10.1c0-7.5-6-13.5-13.5-13.5h-33.7c-3.7,0-6.7,3-6.7,6.7v40.5c0,3.7,3,6.7,6.7,6.7v-23.6H465
			c0.9,0,1.8,0.4,2.4,1l22.6,22.6v-9.5l-14.1-14.1h7.3C487,516.5,490,513.5,490,509.7z M479.9,509.7h-37.1v-13.5
			c0-1.9,1.5-3.4,3.4-3.4h30.4c3.7,0,6.7,3,6.7,6.7v6.7C483.3,508.2,481.7,509.7,479.9,509.7z"/>
		<g id="LINE_49_">
			<polyline class="st9" points="213.3,513.1 240.3,513.1 213.3,486.1 213.3,513.1 			"/>
		</g>
		<g id="LINE_48_">
			<polyline class="st9" points="213.3,513.1 186.3,513.1 213.3,540.1 			"/>
		</g>
		<g id="LINE_47_">
			<polygon class="st9" points="240.3,514.5 214.6,514.5 240.3,540.1 			"/>
		</g>
		<g id="LINE_46_">
			<polygon class="st9" points="211.9,486.1 211.9,511.8 186.3,486.1 			"/>
		</g>
		<polygon class="st9" points="307.8,486.1 314.5,486.1 314.5,500 307.8,492.9 		"/>
	</g>
</g>
<g id="Layer_3">
</g>
</svg>
